<?xml version="1.0" encoding="iso-8859-1"?>
<!-- Uploaded to: SVG Repo, www.svgrepo.com, Generator: SVG Repo Mixer Tools -->
<svg fill="#000000" height="800px" width="800px" version="1.1" id="Layer_1" xmlns="http://www.w3.org/2000/svg" xmlns:xlink="http://www.w3.org/1999/xlink" 
	 viewBox="0 0 512 512" xml:space="preserve">
<g>
	<g>
		<g>
			<path d="M141.246,194.021H60.542c-4.466,0-8.084,3.618-8.084,8.084c0,4.466,3.619,8.084,8.084,8.084h80.704
				c2.798,9.858,10.58,17.64,20.438,20.438v176.278c0,7.43-6.044,13.474-13.474,13.474h-43.116c-7.43,0-13.474-6.044-13.474-13.474
				V234.442c0-4.466-3.619-8.084-8.084-8.084s-8.084,3.618-8.084,8.084v172.463c0,16.344,13.298,29.642,29.642,29.642h43.116
				c16.344,0,29.642-13.298,29.642-29.642V230.628c4.445-1.262,8.468-3.537,11.803-6.559l37.874,23.671
				c-0.102,0.351-0.198,0.704-0.288,1.061c-12.877,3.226-22.442,14.895-22.442,28.758v129.347c0,16.344,13.298,29.642,29.642,29.642
				h43.116c16.344,0,29.642-13.298,29.642-29.642V277.558c0-13.863-9.565-25.533-22.442-28.758
				c-1.436-5.734-4.547-10.81-8.781-14.68l71.508-143.015c1.79,0.339,3.638,0.516,5.525,0.516c13.543,0,24.994-9.13,28.522-21.558
				h102.867l-7.758,7.757c-3.157,3.158-3.157,8.276,0,11.433c3.158,3.156,8.276,3.156,11.433,0l21.558-21.558
				c3.157-3.158,3.157-8.276,0-11.433l-21.558-21.558c-3.158-3.156-8.276-3.156-11.433,0c-3.157,3.158-3.157,8.276,0,11.433
				l7.758,7.758H381.532c-3.527-12.428-14.978-21.558-28.522-21.558c-16.344,0-29.642,13.298-29.642,29.642
				c0,8.654,3.728,16.455,9.663,21.879l-71.508,143.016c-1.79-0.338-3.637-0.516-5.524-0.516c-7.646,0-14.624,2.909-19.887,7.679
				l-37.874-23.671c0.763-2.624,1.172-5.395,1.172-8.261c0-13.543-9.13-24.994-21.558-28.522V29.642
				C177.852,13.298,164.554,0,148.21,0h-43.116C88.75,0,75.452,13.298,75.452,29.642v140.485c0,4.466,3.619,8.084,8.084,8.084
				s8.084-3.618,8.084-8.084V29.642c0-7.429,6.045-13.474,13.474-13.474h43.116c7.43,0,13.474,6.044,13.474,13.474v143.941
				C151.827,176.382,144.044,184.164,141.246,194.021z M353.01,48.505c7.43,0,13.474,6.044,13.474,13.474
				s-6.044,13.474-13.474,13.474s-13.474-6.044-13.474-13.474S345.581,48.505,353.01,48.505z M256,242.527
				c7.43,0,13.474,6.044,13.474,13.474S263.43,269.474,256,269.474c-7.43,0-13.474-6.044-13.474-13.474S248.571,242.527,256,242.527
				z M256,285.642c12.939,0,23.968-8.332,28.003-19.914c4.184,2.288,7.029,6.733,7.029,11.83v129.347
				c0,7.43-6.044,13.474-13.474,13.474h-43.116c-7.43,0-13.474-6.044-13.474-13.474V277.558c0-5.097,2.845-9.542,7.029-11.83
				C232.032,277.31,243.061,285.642,256,285.642z M169.768,188.632c7.43,0,13.474,6.044,13.474,13.474s-6.044,13.474-13.474,13.474
				s-13.474-6.044-13.474-13.474S162.339,188.632,169.768,188.632z"/>
			<path d="M488.075,455.084c-3.157-3.156-8.275-3.156-11.433,0c-3.157,3.157-3.157,8.275,0,11.433l7.758,7.757H51.2
				c-7.43,0-13.474-6.044-13.474-13.474V27.602l7.758,7.758c3.157,3.156,8.275,3.156,11.433,0c3.157-3.157,3.157-8.275,0-11.433
				L35.359,2.368c-3.157-3.156-8.275-3.156-11.433,0L2.368,23.926c-3.157,3.157-3.157,8.275,0,11.433
				c3.157,3.156,8.275,3.156,11.433,0l7.757-7.758V460.8c0,16.344,13.298,29.642,29.642,29.643h433.198l-7.758,7.757
				c-3.157,3.157-3.157,8.275,0,11.433c1.579,1.578,3.649,2.367,5.717,2.367c2.068,0,4.138-0.789,5.717-2.367l21.558-21.558
				c3.157-3.157,3.157-8.275,0-11.433L488.075,455.084z"/>
			<path d="M363.789,129.348c-16.344,0-29.642,13.298-29.642,29.642v247.916c0,16.344,13.298,29.642,29.642,29.642h43.116
				c16.344,0,29.642-13.298,29.642-29.642V158.99c0-16.344-13.298-29.642-29.642-29.642H363.789z M420.379,158.99v247.916
				c0,7.43-6.044,13.474-13.474,13.474h-43.116c-7.43,0-13.474-6.044-13.474-13.474V158.99c0-7.43,6.044-13.474,13.474-13.474
				h43.116C414.335,145.516,420.379,151.561,420.379,158.99z"/>
		</g>
	</g>
</g>
</svg>