<svg xmlns="http://www.w3.org/2000/svg" direction="ltr" width="923" height="276" viewBox="146 154 923 276" stroke-linecap="round" stroke-linejoin="round" encoding="UTF-8&quot;"><defs/><g transform="matrix(1, 0, 0, 1, 331, 210)" opacity="1"><path d="M-3.0654,-1.1354 Q-3.2607,-2.6808 -4.3724,-4.5945 T-6.5666,-7.6434 -9.0583,-9.8765 -12.2837,-12.0825 -16.4179,-14.2741 -21.5634,-16.4198 -27.5222,-18.5321 -34.0464,-20.146 -41.3303,-21.0392 -49.3406,-21.336 -57.434,-20.6363 -65.3157,-18.5244 -72.9438,-15.1855 -80.0458,-11.1473 -86.8012,-6.0873 -93.6,0.4311 -100.9539,8.2803 -108.591,17.073 -115.6907,26.1389 -121.8228,35.1193 -126.9544,44.6765 -131.1191,54.3712 -133.8515,63.8597 -135.3539,73.9107 -135.5374,84.2776 -133.8942,94.2989 -130.5923,103.7567 -126.556,112.5673 -122.3658,119.8427 -117.482,125.7451 -111.5687,130.7084 -105.2602,134.5398 -98.6998,137.5549 -91.8487,139.6429 -84.8012,140.7953 -77.1713,141.2234 -69.2905,140.5895 -61.4836,138.7181 -53.2206,135.5009 -44.8927,131.302 -37.6486,126.7887 -31.7244,121.924 -26.9147,117.0461 -23.4212,112.4502 -21.1071,108.0243 -19.612,103.6769 -18.8377,99.5668 -18.632,95.6121 -19.1699,91.8796 -20.1799,88.5213 -21.5729,85.4679 -23.3911,82.8522 -25.3179,80.5189 -27.2773,78.3853 -30.0173,76.5033 -33.9942,75.0073 -37.6947,74.2092 -40.9056,73.9366 -44.7077,73.6843 -48.7021,73.6856 -52.7345,74.2666 -56.7359,75.2269 -61.8653,76.99 -65.3843,78.3149 -65.9562,78.3949 -66.5307,78.3358 -67.0743,78.1409 -67.5554,77.8216 -67.9462,77.3964 -68.2238,76.8901 -68.3722,76.332 -68.3827,75.7546 -68.2548,75.1915 -67.9958,74.6754 -67.6208,74.2363 -67.1516,73.8996 -64.4271,73.5294 -59.4989,73.353 -54.3703,73.5332 -49.1014,73.7482 -43.7252,73.9 -37.8497,74.0075 -31.6964,74.0839 -25.833,74.1384 -20.1311,74.1774 -14.519,74.2055 -9.1788,74.2256 -3.9898,74.2401 0.8931,74.2506 5.1616,74.2067 9.0886,74.1251 12.6037,74.0149 15.6678,73.8751 19.6428,73.6823 24.0122,73.4442 27.9648,73.2602 30.4495,73.258 31.3015,73.5451 32.0173,74.0892 32.5218,74.8334 32.7623,75.6997 32.7136,76.5975 32.3807,77.4327 31.7986,78.1179 31.0282,78.5813 30.1502,78.7745 29.2564,78.6772 28.4404,78.2996 27.7878,77.6812 27.3668,76.8868 27.2214,75.9996 27.367,75.1124 27.7883,74.3181 28.4411,73.6999 29.2572,73.3226 30.151,73.2255 31.029,73.419 31.7993,73.8827 32.3812,74.5681 32.7137,75.4034 32.7622,76.3011 32.5214,77.1674 32.0167,77.9114 31.3008,78.4553 30.4487,78.7421 29.9996,78.8157 27.9648,78.7398 24.0122,78.5558 19.6427,78.3177 15.6678,78.1249 12.6037,77.985 9.0885,77.8747 5.1615,77.793 0.893,77.7489 -3.99,77.7589 -9.1792,77.7727 -14.5198,77.7914 -20.1326,77.8169 -25.8356,77.8514 -31.7009,77.8978 -37.8588,77.9597 -43.7437,78.0409 -49.1369,78.1454 -54.4531,78.2754 -59.3002,78.3622 -63.2722,78.3088 -65.3843,78.3149 -65.9562,78.3949 -66.5307,78.3358 -67.0743,78.1409 -67.5554,77.8216 -67.9462,77.3964 -68.2238,76.8901 -68.3722,76.332 -68.3827,75.7546 -68.2548,75.1915 -67.9958,74.6754 -67.6208,74.2363 -67.1516,73.8996 -64.7578,73.1798 -61.193,72.1071 -57.8182,71.0695 -53.4673,69.8679 -48.8657,68.9574 -44.5188,68.6732 -40.5064,68.7069 -36.8506,68.9488 -33.4785,69.524 -29.5552,71.1783 -26.0028,73.3086 -23.798,75.364 -21.8197,77.8274 -19.8587,80.5684 -17.8789,83.8861 -16.4348,87.5123 -15.5376,91.3771 -15.042,95.8454 -15.3754,100.2523 -16.3705,104.7928 -18.0596,109.6163 -20.6763,114.4979 -24.4569,119.4553 -29.5392,124.5731 -35.8194,129.7008 -43.3419,134.3741 -51.9927,138.7115 -60.6911,142.0609 -69.0154,144.0106 -77.3707,144.656 -85.3661,144.1882 -92.8445,142.9287 -100.1404,140.6763 -107.045,137.4797 -113.7737,133.3311 -120.1278,127.9314 -125.3265,121.5816 -129.6856,114.0043 -133.8381,104.8819 -137.2771,94.861 -138.9691,84.2212 -138.7581,73.3985 -137.1517,62.9078 -134.2897,53.0208 -129.986,43.0396 -124.6754,33.18 -118.4128,24.0097 -111.2029,14.8042 -103.4834,5.9081 -95.995,-2.0835 -88.8774,-8.8799 -81.7831,-14.1881 -74.3558,-18.4138 -66.2321,-21.9506 -57.7609,-24.2163 -49.2191,-24.9979 -40.8859,-24.7621 -33.1508,-23.8972 -26.24,-22.3475 -20.015,-20.3656 -14.429,-18.3418 -9.6455,-16.2284 -5.6181,-13.8857 -2.254,-11.1313 0.1577,-8.2492 1.7012,-5.2032 2.621,-1.9748 2.8392,0.1548 2.5638,1.2295 1.8981,2.1171 0.9434,2.6824 -0.1549,2.8392 -1.2297,2.5638 -2.1172,1.898 -2.6824,0.9433 -2.87,0.4099 -3.0654,-1.1354 Z" fill="#e03131" stroke-linecap="round"/></g><g transform="matrix(1, 0, 0, 1, 481, 286)" opacity="1"><path d="M-2.5719,1.7705 Q-3.6885,1.1154 -6.4332,-0.2328 T-10.6748,-1.9609 -14.306,-2.6713 -18.7791,-3.2217 -23.7492,-3.5826 -28.7899,-3.3828 -33.3428,-2.239 -37.5737,-0.3477 -41.6629,2.1887 -45.4163,5.2892 -48.2892,8.6441 -50.4892,12.5955 -52.1461,17.1071 -52.8288,21.4333 -52.5594,25.4279 -51.5338,29.0476 -49.9246,31.9547 -46.6172,34.6341 -42.7652,36.6712 -39.8421,37.5325 -36.5805,38.0273 -32.3696,38.419 -27.421,38.496 -22.1386,37.9138 -16.7053,36.3334 -11.3944,33.5594 -6.4661,30.0753 -2.2152,26.2154 0.9554,22.405 2.833,18.8992 3.7602,15.5242 4.2256,12.3411 4.4221,8.3264 4.0883,4.1793 4.8639,3.1639 6.9995,5.4396 8.1564,9.5433 9.0045,15.0717 10.5635,20.8222 11.9265,25.0001 13.6579,28.6331 15.9384,32.1254 18.7554,34.4827 22.0631,35.9368 25.1954,36.4648 28.9165,36.6346 33.0852,36.2401 37.1298,34.9976 41.3971,32.9997 45.5578,30.3308 49.2736,27.4978 52.3768,24.569 54.0152,22.6869 54.8577,22.1742 55.8198,21.9574 56.8008,22.0591 57.6979,22.4688 58.4173,23.1435 58.8835,24.0125 59.0479,24.985 58.8931,25.959 58.4355,26.8326 57.7228,27.5143 56.8298,27.9328 55.8499,28.0442 54.8857,27.8369 54.0381,27.3326 53.396,26.584 53.0265,25.6696 52.9684,24.6851 53.2276,23.7336 53.7771,22.9146 54.5594,22.314 55.4925,21.9946 56.4787,21.9899 57.4148,22.3003 58.2028,22.8934 58.7601,23.7071 59.0285,24.6561 58.9797,25.6411 58.619,26.559 58.3637,26.9881 56.6438,28.9744 53.1365,32.2444 50.2276,34.485 46.7387,36.9525 42.9855,39.2547 39.2536,40.9805 35.5343,42.3072 31.3091,42.9563 26.4023,43.1056 22.101,42.5559 18.1175,41.1514 15.1429,39.3103 12.5492,36.9324 10.0009,33.3256 7.9914,29.7148 6.6783,26.7431 5.7033,23.8348 4.7448,20.908 3.8068,17.7266 2.9716,14.4722 2.3748,9.9156 2.2948,4.5576 3.9045,0.3469 7.1394,0.9332 8.8989,5.9772 8.686,9.9765 8.1711,13.0779 7.3544,16.6264 5.9747,20.5678 3.7006,24.6316 0.1995,28.8461 -4.3574,33.0311 -9.6825,36.8283 -15.6269,39.9612 -21.6533,41.8146 -27.3986,42.6143 -32.7002,42.7796 -37.3403,42.5306 -41.2116,41.8724 -44.7281,40.6586 -47.9762,38.9544 -50.8113,36.7333 -53.2783,33.7323 -55.0296,29.9925 -56.0536,25.6486 -56.2743,20.909 -55.4404,15.9141 -53.5684,10.8477 -51.017,6.3582 -47.7382,2.5189 -43.6194,-0.9306 -39.1391,-3.785 -34.3451,-5.9975 -29.0536,-7.4416 -23.5746,-7.9009 -18.4092,-7.8488 -13.438,-7.656 -8.8687,-7.029 -5.2007,-5.8286 -2.1741,-4.4447 0.3504,-3.1035 1.8641,-2.0548 2.5086,-1.185 2.7711,-0.1348 2.6118,0.936 2.0547,1.8642 1.1849,2.5087 0.1346,2.7711 -0.9361,2.6117 -1.4555,2.4256 -2.5719,1.7705 Z" fill="#e03131" stroke-linecap="round"/></g><g transform="matrix(1, 0, 0, 1, 579, 285)" opacity="1"><path d="M2.8718,1.4462 Q3.0576,3.2282 3.1029,5.4171 T3.3692,9.5693 3.8875,13.7666 4.4067,17.9811 4.7793,21.7381 4.0722,24.1896 2.267,24.7129 1.4598,24.1446 1.8659,23.3783 2.4955,22.7817 3.2826,22.4174 4.1447,22.3236 4.9918,22.5099 5.735,22.9569 6.2965,23.6179 6.6176,24.4236 6.6647,25.2896 6.4327,26.1253 5.946,26.8432 5.2556,27.3681 4.4337,27.645 3.5665,27.6451 2.7445,27.3682 2.0541,26.8433 1.5674,26.1255 1.3354,25.2898 1.3823,24.4238 1.7034,23.6181 2.2649,22.9571 3.008,22.51 3.8551,22.3236 4.7173,22.4174 5.5044,22.7816 6.134,23.3781 6.5401,24.1444 6.6804,25.0003 6.6804,25.4393 6.5346,26.0416 4.9399,28.2429 1.9842,26.8303 0.391,22.1306 0.1001,18.5865 -0.5746,14.4597 -1.4053,10.0425 -1.9674,5.8886 -2.4275,2.1083 -2.648,-0.191 -2.3734,-1.1898 -1.7373,-2.0075 -0.8368,-2.5196 0.1911,-2.648 1.19,-2.3733 2.0076,-1.7372 2.5196,-0.8367 2.686,-0.3356 2.8718,1.4462 Z" fill="#e03131" stroke-linecap="round"/></g><g transform="matrix(1, 0, 0, 1, 577, 265)" opacity="1"><path d="M2.9497,2 Q2.8384,4 2.7641,4.4532 T2.4747,5.3121 1.9262,6.0336 1.176,6.5422 0.3027,6.7846 -0.6023,6.7355 -1.4442,6.4 -2.135,5.8132 -2.6022,5.0365 -2.7969,4.1514 -2.6988,3.2504 -2.3182,2.4278 -1.6948,1.7699 -0.894,1.3455 0.0004,1.199 0.8948,1.3457 1.6955,1.7704 2.3187,2.4285 2.6991,3.2512 2.7969,4.1522 2.6019,5.0373 2.1344,5.8138 1.4435,6.4004 0.6015,6.7357 -0.3035,6.7845 -1.1768,6.5418 -1.9268,6.033 -2.4751,5.3113 -2.7643,4.4523 -2.8384,3.9996 -2.9497,2 -2.9445,-0.5857 -2.4962,-1.668 -1.6678,-2.4963 -0.5856,-2.9445 0.5859,-2.9445 1.6681,-2.4961 2.4964,-1.6677 2.9446,-0.5854 3.061,0.0002 2.9497,2 Z" fill="#e03131" stroke-linecap="round"/></g><g transform="matrix(1, 0, 0, 1, 631, 262)" opacity="1"><path d="M2.7897,2.4519 Q2.8845,5.1284 3.1308,8.1391 T3.5031,14.6833 3.9017,21.4328 4.322,28.0628 4.5437,34.2536 4.7031,39.0146 4.0677,42.1678 2.9084,41.2044 3.2747,36.4856 4.9918,31.1163 7.1224,25.5926 9.7307,20.607 12.3138,16.6527 14.9438,13.6018 17.7035,11.4389 21.9716,10.048 26.5081,9.9877 29.536,11.6025 32.2761,13.9404 34.8478,16.9158 37.2034,20.8177 39.316,25.5318 41.134,30.8998 42.571,36.6026 43.5757,42.4978 44.3394,48.2029 44.9824,53.126 45.4057,57.2585 44.6802,59.6699 45.0612,58.6541 46.692,56.9218 47.424,56.6129 48.2164,56.554 48.9861,56.7511 49.6526,57.1837 50.146,57.8065 50.4148,58.5542 50.4307,59.3486 50.1921,60.1065 49.724,60.7486 49.0754,61.2076 48.3142,61.4354 47.5201,61.4082 46.7763,61.1289 46.1606,60.6268 45.7374,59.9542 45.5512,59.1818 45.6213,58.3904 45.9405,57.6627 46.4753,57.0751 47.1698,56.689 47.9512,56.5449 48.7377,56.6578 49.4469,57.016 50.0047,57.5819 50.3526,58.2962 50.4541,59.0843 50.2987,59.8635 49.9027,60.5523 49.6485,60.864 48.6145,61.7172 45.8024,63.5516 42.8865,61.9856 41.6675,57.5925 41.3496,53.6102 40.659,48.7274 39.8223,43.1828 38.7465,37.6287 37.2391,32.3224 35.3575,27.4737 33.2112,23.3969 31.1008,20.2741 28.1003,17.0656 24.5299,14.6621 20.9879,14.7577 17.8566,16.311 15.5296,18.7872 13.19,22.3809 10.9375,26.9804 9.1182,32.3094 7.725,37.675 6.6833,41.9404 4.8599,45.7426 2.1919,44.4944 0.9017,39.1385 0.7452,34.4271 0.3983,28.3689 -0.2047,21.7513 -0.8479,15.0553 -1.551,8.5974 -2.3454,2.8799 -2.6352,-0.2996 -2.32,-1.2853 -1.6515,-2.0753 -0.7315,-2.5493 0.2998,-2.6352 1.2854,-2.3199 2.0754,-1.6514 2.5494,-0.7314 2.6948,-0.2244 2.7897,2.4519 Z" fill="#e03131" stroke-linecap="round"/></g><g transform="matrix(1, 0, 0, 1, 713, 272)" opacity="1"><path d="M2.4787,-2.3485 Q4.688,-2.0029 7.0756,-1.5537 T12.0117,-0.8489 17.6119,-0.2079 24.9886,0.6202 34.6045,1.5377 45.7248,2.504 58.1508,3.7185 69.9268,4.8425 79.5756,5.6932 87.4953,6.8514 93.1358,8.188 96.8978,9.9886 99.2185,13.0114 99.826,16.9619 98.5407,21.6048 95.867,26.8077 91.8659,32.5728 86.025,39.3758 79.0098,46.8922 70.8417,54.6558 61.8409,62.5344 53.0939,70.2094 44.8722,77.161 37.8946,83.212 32.4688,88.1229 28.3576,91.9452 25.5017,94.9789 26.7774,98.1249 32.2692,100.6592 39.5066,101.9472 48.6198,102.9177 59.6876,103.6986 73.1763,104.3691 88.4191,104.7493 104.0049,104.9675 119.3316,105.0934 133.1806,105.1667 144.2091,105.2098 152.2791,105.0152 159.7205,104.5371 164.1672,104.2971 164.7022,104.4396 165.1637,104.7455 165.5034,105.1828 165.6856,105.7056 165.6914,106.2593 165.52,106.7858 165.1896,107.23 164.7345,107.5454 164.2026,107.6991 163.6495,107.6748 163.133,107.4752 162.7074,107.1212 162.417,106.6497 162.2924,106.1102 162.3466,105.5592 162.5739,105.0544 162.9505,104.6485 163.437,104.3841 163.9825,104.289 164.5297,104.3729 165.0215,104.6273 165.4064,105.0253 165.644,105.5254 165.7095,106.0752 165.596,106.6171 165.3154,107.0944 164.897,107.4571 164.3848,107.6673 164.1117,107.7304 159.9448,108.0023 152.3873,108.4947 144.1991,108.7077 133.1659,108.6849 119.3069,108.6396 103.9608,108.5521 88.3359,108.3862 72.999,108.0752 59.4424,107.5019 48.2263,106.8439 38.8262,106.0247 31.1378,104.8915 25.3954,103.5923 20.9562,100.9202 19.2377,97.4336 20.6264,94.7671 22.9121,92.445 25.984,89.4211 30.1418,85.5404 35.5987,80.5872 42.6082,74.4841 50.7619,67.5591 59.4902,59.8572 68.3448,52.0575 76.3174,44.3999 83.1564,36.958 88.6547,30.4351 92.2659,25.0125 94.7724,19.1929 95.0669,14.0314 92.2296,11.5757 86.9683,10.3246 79.2672,9.2249 69.6006,8.4109 57.811,7.3387 45.4198,6.2003 34.2676,5.331 24.5915,4.5443 17.2401,3.9049 11.528,3.5041 6.5012,3.1335 1.9644,2.7928 -0.7747,2.54 -1.6877,2.0502 -2.3438,1.2482 -2.6431,0.2562 -2.5399,-0.7748 -2.0501,-1.6878 -1.2481,-2.3439 -0.2561,-2.6431 0.2695,-2.6941 2.4787,-2.3485 Z" fill="#e03131" stroke-linecap="round"/></g><g transform="matrix(1, 0, 0, 1, 873, 289)" opacity="1"><path d="M2.8799,-2.3454 Q5.5351,-1.9959 8.5975,-1.5509 T15.337,-0.6208 24.1427,0.3668 35.4561,1.3804 48.16,2.181 62.0787,2.6366 76.51,3.122 90.5582,3.8433 102.788,4.4699 111.6194,5.0463 117.3666,5.8104 121.0529,7.2819 123.351,10.01 123.3893,14.2095 121.059,19.3527 117.1685,24.7307 112.3414,30.5372 106.5657,37.2699 99.7746,44.8048 92.4278,52.5567 84.8055,60.6179 77.2185,68.4445 69.8539,75.4944 62.889,82.0596 57.0627,87.8845 52.4944,92.6729 48.8231,96.4656 48.4262,98.8422 51.7519,100.1325 57.4654,101.2255 65.7329,102.3012 76.1219,103.364 88.3664,104.6349 101.586,105.7911 114.875,106.4352 127.8163,106.7985 139.2308,107.0037 148.0192,107.12 154.4574,107.1861 160.5993,107.2388 164.2898,107.3149 164.8127,107.4957 165.2505,107.8339 165.5573,108.2943 165.7012,108.8285 165.6669,109.3807 165.4581,109.893 165.0966,110.3118 164.6203,110.5933 164.0791,110.708 163.5296,110.6438 163.0293,110.4075 162.6307,110.0239 162.3754,109.533 162.2903,108.9864 162.3841,108.4412 162.6471,107.9545 163.0518,107.5772 163.5558,107.3489 164.1062,107.2935 164.6456,107.4168 165.1173,107.7058 165.4721,108.1303 165.6727,108.6459 165.6982,109.1986 165.5459,109.7304 165.2318,110.1858 164.7886,110.517 164.2629,110.6894 163.9862,110.7326 160.5722,110.7079 154.4258,110.6647 147.9775,110.6115 139.1727,110.5131 127.7221,110.3319 114.7082,110 101.278,109.393 88.0029,108.2977 75.756,107.116 65.2585,106.1638 56.7281,105.2126 50.6026,104.2572 46.2077,102.8508 43.5809,100.3464 43.876,97.2347 46.3356,94.0622 49.9875,90.2812 54.5998,85.438 60.4972,79.5273 67.4339,72.9689 74.6918,65.9969 82.2249,58.185 89.8189,50.0972 97.0615,42.3805 103.7321,34.8717 109.3885,28.1248 113.9403,22.4671 117.333,17.6089 119.3138,13.926 119.2664,11.1049 116.7394,9.2999 111.3774,8.5531 102.6155,8.0095 90.3812,7.4204 76.396,6.7534 61.9675,6.3395 47.938,5.9765 35.1339,5.3038 23.7315,4.4657 14.846,3.7202 8.139,3.1308 2.4519,2.7897 -0.7317,2.5493 -1.6516,2.0752 -2.32,1.2852 -2.6353,0.2995 -2.5493,-0.7318 -2.0751,-1.6517 -1.2851,-2.3201 -0.2994,-2.6353 0.2247,-2.6948 2.8799,-2.3454 Z" fill="#e03131" stroke-linecap="round"/></g><g transform="matrix(1, 0, 0, 1, 178, 384)" opacity="1"><path d="M1.7772,-2.8519 Q3.5545,-2.7973 4.9864,-2.7996 T8.1026,-2.772 11.6115,-2.6963 15.1165,-2.6361 18.3971,-2.6209 21.553,-2.6248 24.6396,-2.6362 28.6361,-2.8899 33.5642,-3.3992 37.9561,-3.7842 41.8077,-4.3295 45.6348,-4.9749 49.4216,-5.6809 53.203,-6.6867 56.6795,-7.3092 59.9831,-7.5902 63.1426,-7.9052 67.1205,-8.1175 71.0724,-8.1845 75.0226,-8.4845 79.2383,-8.829 82.7136,-8.8375 86.4022,-8.7638 90.3174,-8.827 94.6145,-9.1777 99.3614,-9.5416 104.7744,-9.7188 110.5888,-10.0061 116.4773,-10.3694 122.7124,-10.5625 129.226,-10.8784 135.9545,-11.2696 143.0335,-11.7042 150.2976,-12.1642 157.2141,-12.6386 163.722,-13.1225 170.2295,-13.6123 176.7336,-14.1057 182.7791,-14.5999 188.8111,-15.0969 195.1192,-15.3776 201.0625,-15.5318 207.0323,-15.617 213.1769,-15.8837 219.031,-16.2544 224.7903,-16.4631 230.3672,-16.7969 235.6854,-17.2051 240.8585,-17.6527 245.9557,-18.1241 251.3085,-18.3918 256.727,-18.5392 261.957,-18.6206 267.0854,-18.6658 272.157,-18.6908 277.1965,-18.7047 282.1427,-18.9311 287.5637,-19.2803 293.3162,-19.4779 298.7276,-19.5866 304.1803,-19.6469 309.6543,-19.6803 314.6949,-19.6989 320.6067,-19.7092 327.4465,-19.7149 333.4684,-19.7181 338.8141,-19.7199 344.2285,-19.7208 349.4587,-19.7214 354.1423,-19.7229 358.7444,-19.7239 363.0789,-19.7711 367.2641,-19.8135 371.2566,-20.0714 375.0303,-20.4925 379.0147,-20.7398 383.0066,-20.8797 386.7784,-20.9924 390.6529,-21.0457 394.5836,-21.0714 398.1986,-21.3321 401.9868,-21.6901 405.8749,-22.098 409.8122,-22.5402 413.8949,-22.7947 417.9408,-22.931 421.9655,-23.0038 425.8642,-23.2547 429.5751,-23.6485 433.0799,-23.9321 436.5951,-24.101 440.2015,-24.3842 443.7489,-24.7777 447.178,-25.0493 450.6517,-25.2017 453.915,-25.312 457.0601,-25.3973 461.3538,-25.5092 465.7162,-26.0212 469.1378,-26.6368 472.3441,-26.927 475.8822,-27.0633 479.864,-27.1312 484.0807,-27.1633 488.1475,-27.1937 491.8065,-27.272 495.7411,-27.3571 499.5147,-27.3981 502.908,-27.4414 506.1908,-27.5039 509.2393,-27.5568 512.2476,-27.6 515.4712,-27.6283 518.9238,-27.6465 522.827,-27.6428 525.5795,-27.5348 526.6779,-27.1647 527.6006,-26.4633 528.251,-25.5039 528.561,-24.3871 528.4982,-23.2298 528.0692,-22.1531 527.3187,-21.2697 526.3256,-20.6723 525.1936,-20.4232 524.0413,-20.5486 522.9895,-21.0354 522.1481,-21.8326 521.6053,-22.8567 521.418,-24.0005 521.6057,-25.1443 522.1487,-26.1682 522.9903,-26.9652 524.0424,-27.4516 525.1946,-27.5767 526.3266,-27.3273 527.3196,-26.7296 528.0697,-25.846 528.4985,-24.7692 528.5609,-23.6118 528.2506,-22.4951 527.5999,-21.5359 526.677,-20.8348 525.5785,-20.465 524.9995,-20.3702 522.827,-20.3572 518.9238,-20.3535 515.4712,-20.3717 512.2476,-20.4 509.2393,-20.4432 506.1908,-20.4961 502.9081,-20.5586 499.5147,-20.6019 496.27,-20.6271 493.0036,-20.6931 489.8601,-20.78 486.269,-20.827 482.1546,-20.8554 478.1839,-20.8933 474.2967,-20.9323 470.342,-20.9431 466.1412,-20.6569 461.3908,-20.4484 457.1184,-20.5119 454.0097,-20.5245 450.8162,-20.5042 447.4679,-20.4213 444.2173,-20.2696 440.5415,-19.9015 436.7463,-19.6134 433.3383,-19.5541 429.9812,-19.4268 426.1413,-19.0813 422.0487,-18.8013 418.089,-18.7182 414.163,-18.5741 410.2962,-18.324 406.3245,-17.8581 402.3764,-17.4313 398.4592,-17.0867 394.6044,-16.8827 390.6898,-16.8718 386.8426,-16.8592 383.1153,-16.8533 379.209,-16.7798 375.3765,-16.643 371.4796,-16.3729 367.2656,-16.1863 363.079,-16.2287 358.7445,-16.2757 354.1425,-16.2764 349.4591,-16.2772 344.2291,-16.2767 338.8153,-16.2757 333.4702,-16.2739 327.4494,-16.2708 320.6133,-16.265 314.7074,-16.2547 309.6752,-16.2362 304.2187,-16.2029 298.7963,-16.1432 293.4327,-16.0358 287.7904,-15.8445 282.3005,-15.4939 277.2066,-15.2605 272.1739,-15.2466 267.1156,-15.2216 262.0104,-15.1768 256.8198,-15.0962 251.4814,-14.9521 246.2718,-14.6952 241.1566,-14.2225 235.9473,-13.7707 230.5772,-13.3601 224.9157,-13.0197 219.246,-12.815 213.3279,-12.4415 207.083,-12.1687 201.1515,-12.0826 195.2721,-11.9284 189.1001,-11.6542 183.0674,-11.1526 176.9966,-10.6495 170.4918,-10.1475 163.9833,-9.6457 157.4623,-9.1447 150.5274,-8.6461 143.2592,-8.1548 136.1799,-7.6772 129.4231,-7.2263 122.863,-6.8263 116.765,-6.5308 110.8536,-6.0147 105.0282,-5.519 99.8889,-5.0867 95.2411,-4.3538 90.6274,-3.5304 86.5029,-3.0797 82.9194,-2.8809 78.5528,-2.5375 72.891,-1.9532 67.5698,-1.4643 62.8873,-0.9185 58.9053,-0.4762 55.8587,-0.2969 52.989,0.162 49.2044,0.8928 45.3074,1.4183 41.9075,1.7722 38.2066,2.0087 34.1691,2.1265 29.0674,2.4455 24.6396,2.6362 21.553,2.6248 18.3971,2.6209 15.1165,2.6361 11.6115,2.6963 8.1026,2.772 4.9864,2.7996 1.7772,2.8519 -0.5562,2.7959 -1.5838,2.3702 -2.3703,1.5837 -2.7959,0.556 -2.7959,-0.5563 -2.3701,-1.5839 -1.5836,-2.3704 -0.5559,-2.7959 0.0001,-2.9065 1.7772,-2.8519 Z" fill="#e03131" stroke-linecap="round"/></g></svg>